<?xml version="1.0" encoding="utf-8"?>
<!-- Generator: Adobe Illustrator 16.0.0, SVG Export Plug-In . SVG Version: 6.00 Build 0)  -->
<!DOCTYPE svg PUBLIC "-//W3C//DTD SVG 1.1//EN" "http://www.w3.org/Graphics/SVG/1.1/DTD/svg11.dtd">
<svg version="1.1" id="圖層_1" xmlns="http://www.w3.org/2000/svg" xmlns:xlink="http://www.w3.org/1999/xlink" x="0px" y="0px"
	 width="400px" height="400px" viewBox="0 0 400 400" enable-background="new 0 0 400 400" xml:space="preserve">
<circle fill="#FF725E" cx="200" cy="200.734" r="200.734"/>
<g>
	<path fill-rule="evenodd" clip-rule="evenodd" fill="#FFFFFF" d="M307.73,171.957c-9.855-0.729-19.714-0.57-29.573-0.072
		c-9.929,0-19.856-0.002-29.785-0.002c-2.839-0.238-5.678-0.476-9.062-0.76c2.458-4.841,4.031-9.518,4.316-14.533
		c2.663-9.753,4.078-19.68,4.16-29.794c0.964-10.167,0.432-20.159-3.476-29.758c-4.229-14.6-14.256-22.896-25.729-21.289
		c-3.93,0.3-6.975,2.084-8.597,5.706c-2.234,4.987-2.137,10.329-1.898,15.655c-1.725,10.252-4.931,20.055-9.041,29.579
		c-3.387,5.38-6.772,10.761-10.158,16.14c-3.378,4.096-6.757,8.189-10.136,12.284c-3.254,3.004-6.148,6.584-9.835,8.899
		c-8.672,5.444-10.051,13.145-8.177,22.243c-0.688,9.883-0.68,19.765,0,29.646c-0.691,9.906-0.683,19.814,0,29.721
		c-0.688,9.883-0.68,19.765,0,29.646c0.011,9.93-2.286,19.984,1.595,29.707c6.38,9.941,16.094,11.357,26.716,10.451
		c9.901,0.648,19.803,0.656,29.703,0.008c9.889,0.633,19.776,0.641,29.664-0.008c9.901,0.645,19.803,0.662,29.703,0.004
		c8.047,1.094,10.18-5.158,13.042-10.502c5.427-9.116,7.611-19.346,10.116-29.466c5.98-19.49,11.077-39.196,14.652-59.278
		c2.356-9.814,4.514-19.657,4.225-29.846C319.457,176.727,317.201,174.115,307.73,171.957z"/>
	<path fill-rule="evenodd" clip-rule="evenodd" fill="#FFFFFF" d="M143.063,245.604c0.604-9.894,0.592-19.787,0.002-29.681
		c0.629-9.896,0.586-19.792,0.008-29.688c0.854-11.92-1.987-14.962-13.432-14.375c-9.858,0.006-19.717,0.012-29.575,0.018
		c-11.257-0.665-13.389,1.938-11.77,14.381c-0.319,9.924,0.868,19.762,1.717,29.619c0.606,9.925,1.213,19.852,1.819,29.777
		c0.483,9.873,0.305,19.791,2.026,29.58c0.513,11.061,0.952,22.125,1.57,33.18c0.287,5.141,3.548,7.366,8.407,7.348
		c8.616-0.033,17.232-0.212,25.848-0.331c12.993,1.074,14.142,0.177,13.37-10.458c0.628-9.895,0.593-19.788,0.011-29.683
		C143.685,265.395,143.665,255.498,143.063,245.604z"/>
</g>
</svg>
