<?xml version="1.0" encoding="utf-8"?>
<!-- Generator: Adobe Illustrator 16.0.0, SVG Export Plug-In . SVG Version: 6.00 Build 0)  -->
<!DOCTYPE svg PUBLIC "-//W3C//DTD SVG 1.1//EN" "http://www.w3.org/Graphics/SVG/1.1/DTD/svg11.dtd">
<svg version="1.1" id="圖層_1" xmlns="http://www.w3.org/2000/svg" xmlns:xlink="http://www.w3.org/1999/xlink" x="0px" y="0px"
	 width="400px" height="400px" viewBox="0 0 400 400" enable-background="new 0 0 400 400" xml:space="preserve">
<path fill-rule="evenodd" clip-rule="evenodd" fill="#FF4B4B" d="M374.671,141.755c-0.141-6.845-0.354-13.693-0.718-20.531
	c-0.484-9.026-1.113-18.049-1.749-27.068c-0.396-5.604-0.915-11.201-1.385-16.799c-0.12-1.407-0.727-2.094-2.319-2.173
	c-5.873-0.288-11.731-0.849-17.604-1.125c-36.224-1.701-72.458-3.013-108.734-2.067c-10.271,0.268-20.549,0.353-30.809,0.838
	c-12.365,0.582-24.72,1.423-37.069,2.298c-12.59,0.896-25.18,1.835-37.748,2.999c-14.749,1.367-29.47,3.016-44.208,4.491
	c-1.833,0.182-2.782,0.971-3.018,2.807c-1.174,9.134-2.478,18.251-3.563,27.396c-0.999,8.421-1.856,16.862-2.633,25.307
	c-0.334,3.632-0.693,7.263-1.054,10.896c-18.986,15.431-37.976,30.863-57.208,46.493c17.83,13.885,35.464,27.617,53.095,41.347
	c-0.124,5.482-0.243,10.966-0.361,16.45c-0.164,7.573,0.229,15.165,0.592,22.739c0.443,9.194,1.068,18.382,1.721,27.565
	c0.38,5.358,0.948,10.705,1.471,16.054c0.112,1.159,0.35,2.106,1.975,2.229c12.293,0.916,24.568,2.125,36.871,2.868
	c12.477,0.753,24.98,1.074,37.472,1.583c-0.003,0.113-0.007,0.224-0.011,0.337c15.435,0.38,30.869,0.815,46.306,1.121
	c12.571,0.248,25.146,0.352,37.72,0.492c3.916,0.041,7.836,0.039,11.753-0.037c10.192-0.193,20.383-0.407,30.575-0.676
	c6.764-0.182,13.529-0.372,20.284-0.742c8.784-0.481,17.573-0.961,26.333-1.783c10.207-0.953,20.379-2.324,30.579-3.394
	c1.901-0.198,2.479-1.219,2.738-2.773c0.68-4.098,1.46-8.184,1.988-12.302c1.36-10.59,2.801-21.175,3.853-31.799
	c1.383-13.964,2.563-27.952,3.566-41.951c0.633-8.8,0.858-17.631,1.127-26.452c0.31-10.122,0.634-20.249,0.649-30.376
	C375.17,164.594,374.904,153.174,374.671,141.755z"/>
<g>
	<g>
		<path fill="#FFFFFF" d="M301.387,122.126c8.999,0,16.316,7.313,16.316,16.326v123.091c0,9.023-7.317,16.331-16.316,16.331H153.739
			c-9.008,0-16.321-7.308-16.321-16.331V138.452c0-9.014,7.313-16.326,16.321-16.326H301.387 M301.387,110.748H153.739
			c-15.273,0-27.696,12.429-27.696,27.704v123.091c0,15.278,12.423,27.709,27.696,27.709h147.647
			c15.271,0,27.691-12.431,27.691-27.709V138.452C329.078,123.177,316.658,110.748,301.387,110.748L301.387,110.748z"/>
	</g>
	<path fill="#FFFFFF" d="M175.108,153.374V141.72c0-1.575-0.575-2.942-1.729-4.102c-1.159-1.149-2.517-1.724-4.096-1.724h-11.655
		c-1.589,0-2.946,0.574-4.101,1.724c-1.154,1.159-1.729,2.526-1.729,4.102v11.654c0,1.58,0.575,2.942,1.729,4.097
		c1.155,1.154,2.512,1.733,4.101,1.733h11.655c1.579,0,2.937-0.579,4.096-1.733C174.533,156.316,175.108,154.954,175.108,153.374z"
		/>
	<path fill="#FFFFFF" d="M175.108,188.348v-11.655c0-1.58-0.575-2.946-1.729-4.097c-1.159-1.154-2.517-1.733-4.096-1.733h-11.655
		c-1.589,0-2.946,0.579-4.101,1.733c-1.154,1.15-1.729,2.517-1.729,4.097v11.655c0,1.579,0.575,2.941,1.729,4.096
		c1.155,1.149,2.512,1.733,4.101,1.733h11.655c1.579,0,2.937-0.584,4.096-1.733C174.533,191.289,175.108,189.927,175.108,188.348z"
		/>
	<path fill="#FFFFFF" d="M175.108,223.317v-11.66c0-1.579-0.575-2.941-1.729-4.096c-1.159-1.149-2.517-1.729-4.096-1.729h-11.655
		c-1.589,0-2.946,0.58-4.101,1.729c-1.154,1.154-1.729,2.517-1.729,4.096v11.66c0,1.58,0.575,2.946,1.729,4.096
		c1.155,1.155,2.512,1.725,4.101,1.725h11.655c1.579,0,2.937-0.569,4.096-1.725C174.533,226.264,175.108,224.897,175.108,223.317z"
		/>
	<path fill="#FFFFFF" d="M175.108,258.278v-11.65c0-1.579-0.575-2.946-1.729-4.096c-1.159-1.154-2.517-1.734-4.096-1.734h-11.655
		c-1.589,0-2.946,0.58-4.101,1.734c-1.154,1.149-1.729,2.517-1.729,4.096v11.65c0,1.584,0.575,2.946,1.729,4.101
		c1.155,1.159,2.512,1.729,4.101,1.729h11.655c1.579,0,2.937-0.57,4.096-1.729C174.533,261.225,175.108,259.862,175.108,258.278z"/>
	<g>
		<path fill="#FFFFFF" d="M268.349,188.348V141.72c0-1.575-0.575-2.942-1.725-4.102c-1.159-1.149-2.516-1.724-4.096-1.724h-69.941
			c-1.574,0-2.937,0.574-4.091,1.724c-1.154,1.159-1.734,2.526-1.734,4.102v46.628c0,1.579,0.58,2.941,1.734,4.096
			c1.154,1.149,2.517,1.733,4.091,1.733h69.941c1.58,0,2.937-0.584,4.096-1.733C267.774,191.289,268.349,189.927,268.349,188.348z"
			/>
	</g>
	<g>
		<path fill="#FFFFFF" d="M268.349,258.278v-46.621c0-1.579-0.575-2.941-1.725-4.096c-1.159-1.149-2.516-1.729-4.096-1.729h-69.941
			c-1.574,0-2.937,0.58-4.091,1.729c-1.154,1.154-1.734,2.517-1.734,4.096v46.621c0,1.584,0.58,2.946,1.734,4.101
			c1.154,1.159,2.517,1.729,4.091,1.729h69.941c1.58,0,2.937-0.57,4.096-1.729C267.774,261.225,268.349,259.862,268.349,258.278z"/>
	</g>
	<path fill="#FFFFFF" d="M303.324,153.374V141.72c0-1.575-0.58-2.942-1.729-4.102c-1.16-1.149-2.522-1.724-4.102-1.724h-11.65
		c-1.584,0-2.946,0.574-4.096,1.724c-1.159,1.159-1.734,2.526-1.734,4.102v11.654c0,1.58,0.575,2.942,1.734,4.097
		c1.149,1.154,2.512,1.733,4.096,1.733h11.65c1.58,0,2.941-0.579,4.102-1.733C302.744,156.316,303.324,154.954,303.324,153.374z"/>
	<path fill="#FFFFFF" d="M303.324,188.348v-11.655c0-1.58-0.58-2.946-1.729-4.097c-1.16-1.154-2.522-1.733-4.102-1.733h-11.65
		c-1.584,0-2.946,0.579-4.096,1.733c-1.159,1.15-1.734,2.517-1.734,4.097v11.655c0,1.579,0.575,2.941,1.734,4.096
		c1.149,1.149,2.512,1.733,4.096,1.733h11.65c1.58,0,2.941-0.584,4.102-1.733C302.744,191.289,303.324,189.927,303.324,188.348z"/>
	<path fill="#FFFFFF" d="M303.324,223.317v-11.66c0-1.579-0.58-2.941-1.729-4.096c-1.16-1.149-2.522-1.729-4.102-1.729h-11.65
		c-1.584,0-2.946,0.58-4.096,1.729c-1.159,1.154-1.734,2.517-1.734,4.096v11.66c0,1.58,0.575,2.946,1.734,4.096
		c1.149,1.155,2.512,1.725,4.096,1.725h11.65c1.58,0,2.941-0.569,4.102-1.725C302.744,226.264,303.324,224.897,303.324,223.317z"/>
	<path fill="#FFFFFF" d="M303.324,258.278v-11.65c0-1.579-0.58-2.946-1.729-4.096c-1.16-1.154-2.522-1.734-4.102-1.734h-11.65
		c-1.584,0-2.946,0.58-4.096,1.734c-1.159,1.149-1.734,2.517-1.734,4.096v11.65c0,1.584,0.575,2.946,1.734,4.101
		c1.149,1.159,2.512,1.729,4.096,1.729h11.65c1.58,0,2.941-0.57,4.102-1.729C302.744,261.225,303.324,259.862,303.324,258.278z"/>
</g>
</svg>
