<?xml version="1.0" encoding="utf-8"?>
<!-- Generator: Adobe Illustrator 16.0.0, SVG Export Plug-In . SVG Version: 6.00 Build 0)  -->
<!DOCTYPE svg PUBLIC "-//W3C//DTD SVG 1.1//EN" "http://www.w3.org/Graphics/SVG/1.1/DTD/svg11.dtd">
<svg version="1.1" id="圖層_1" xmlns="http://www.w3.org/2000/svg" xmlns:xlink="http://www.w3.org/1999/xlink" x="0px" y="0px"
	 width="400px" height="400px" viewBox="0 0 400 400" enable-background="new 0 0 400 400" xml:space="preserve">
<circle fill="#FF725E" cx="200" cy="200" r="200.734"/>
<g>
	<defs>
		<circle id="SVGID_1_" cx="200" cy="200" r="200.734"/>
	</defs>
	<clipPath id="SVGID_2_">
		<use xlink:href="#SVGID_1_"  overflow="visible"/>
	</clipPath>
	<g clip-path="url(#SVGID_2_)">
		<path fill-rule="evenodd" clip-rule="evenodd" fill="#FFFFFF" d="M257.396,104.136L257.396,104.136l-55.341,57.583l22.063,82.466
			l76.704,22.256l16.557-4.431L273.955,99.707L257.396,104.136z M-27.275,311.095l195.532-52.312l5.868,21.933l-195.532,52.313
			L-27.275,311.095z M119.952,156.041c10.958-2.934,21.411,3.197,24.348,14.173c2.549,9.533-3.443,20.071-14.402,23.004
			c-9.656,2.58-21.534-3.174-24.085-12.706C102.876,169.534,110.296,158.624,119.952,156.041L119.952,156.041z M-80.775,184.251
			c-7.019,1.878-11.967,10.609-10.121,17.514l42.279,158.028c2.2,8.224,9.146,12.243,17.485,10.015l249.16-66.66l-49.642-185.557
			L-80.775,184.251z"/>
	</g>
</g>
</svg>
