<?xml version="1.0" encoding="utf-8"?>
<!-- Generator: Adobe Illustrator 16.0.0, SVG Export Plug-In . SVG Version: 6.00 Build 0)  -->
<!DOCTYPE svg PUBLIC "-//W3C//DTD SVG 1.1//EN" "http://www.w3.org/Graphics/SVG/1.1/DTD/svg11.dtd">
<svg version="1.1" id="圖層_1" xmlns="http://www.w3.org/2000/svg" xmlns:xlink="http://www.w3.org/1999/xlink" x="0px" y="0px"
	 width="600px" height="200px" viewBox="0 0 600 200" enable-background="new 0 0 600 200" xml:space="preserve">
<g>
	<linearGradient id="SVGID_1_" gradientUnits="userSpaceOnUse" x1="608.5752" y1="30.7393" x2="113.5752" y2="123.7395">
		<stop  offset="0.3421" style="stop-color:#72625A"/>
		<stop  offset="1" style="stop-color:#3A2F28"/>
	</linearGradient>
	<path fill="url(#SVGID_1_)" d="M210.436,142.051l-5.195,11.895c-1.004,2.277-1.801,3.828-2.393,4.648
		c-0.594,0.82-1.982,1.23-4.17,1.23h-12.715c-2.188,0-3.807-0.342-4.854-1.025c-1.049-0.684-1.254-2.166-0.615-4.443l5.332-11.895
		c1.275-2.369,2.277-3.918,3.008-4.648c0.729-0.729,2.188-1.094,4.375-1.094h11.758c2.369,0,4.055,0.525,5.059,1.572
		C211.027,139.34,211.164,140.594,210.436,142.051z M190.201,70.273c-2.188,0-3.691-0.479-4.512-1.436s-1.23-2.438-1.23-4.443
		v-6.016c0-1.73,0.137-3.098,0.41-4.102l7.52-11.758c1.641-2.461,2.824-4.078,3.555-4.854c0.729-0.773,2.188-1.115,4.375-1.025h9.57
		c2.369-0.09,4.055,0.41,5.059,1.504c1.002,1.094,1.139,2.371,0.41,3.828l-6.152,9.98h8.477l-2.051-3.418
		c-0.73-1.457-0.594-2.734,0.41-3.828c1.002-1.094,2.688-1.594,5.059-1.504h9.57c2.188-0.09,3.645,0.252,4.375,1.025
		c0.729,0.775,1.914,2.393,3.555,4.854l3.145,4.648c0.363,1.367,0.547,2.918,0.547,4.648v6.016c0,2.006-0.41,3.486-1.23,4.443
		s-2.416,1.436-4.785,1.436H190.201z M238.053,73.691c1.457,0,2.529,0.365,3.213,1.094c0.684,0.73,1.025,1.824,1.025,3.281v50.586
		c0,1.459-0.342,2.529-1.025,3.213s-1.756,1.025-3.213,1.025h-22.832c-1.641,0-2.781-0.342-3.418-1.025
		c-0.639-0.684-0.957-1.617-0.957-2.803v-3.965c0-1.73,0.318-3.008,0.957-3.828c0.637-0.82,1.777-1.23,3.418-1.23h3.281v-3.555
		h-10.254v12.168c0,1.459-0.252,2.529-0.752,3.213c-0.502,0.684-1.572,1.025-3.213,1.025h-15.586c-1.459,0-2.529-0.342-3.213-1.025
		s-1.025-1.754-1.025-3.213V78.066c0-1.457,0.342-2.551,1.025-3.281c0.684-0.729,1.754-1.094,3.213-1.094H238.053z M208.248,92.277
		h10.254v-6.281h-10.254V92.277z M208.248,107.59h10.254v-6.281h-10.254V107.59z M215.084,142.051
		c-0.73-1.457-0.594-2.711,0.41-3.76c1.002-1.047,2.688-1.572,5.059-1.572h11.758c2.188,0,3.645,0.365,4.375,1.094
		c0.729,0.73,1.73,2.279,3.008,4.648l5.332,11.895c0.637,2.277,0.432,3.76-0.615,4.443c-1.049,0.684-2.666,1.025-4.854,1.025
		h-12.715c-2.188,0-3.578-0.41-4.17-1.23c-0.594-0.82-1.391-2.371-2.393-4.648L215.084,142.051z M245.162,142.051
		c-0.73-1.457-0.594-2.711,0.41-3.76c1.002-1.047,2.688-1.572,5.059-1.572h11.758c2.188,0,3.645,0.365,4.375,1.094
		c0.729,0.73,1.73,2.279,3.008,4.648l5.332,11.895c0.637,2.277,0.432,3.76-0.615,4.443c-1.049,0.684-2.666,1.025-4.854,1.025H256.92
		c-2.188,0-3.578-0.41-4.17-1.23c-0.594-0.82-1.391-2.371-2.393-4.648L245.162,142.051z M251.861,83.125
		c-2.371,0-3.943-0.342-4.717-1.025c-0.775-0.684-1.162-1.846-1.162-3.486V41.973c0-2.188,0.387-3.645,1.162-4.375
		c0.773-0.729,2.346-1.094,4.717-1.094h12.031c2.188,0,3.645,0.32,4.375,0.957c0.729,0.639,1.094,2.143,1.094,4.512v3.828h25.703
		c2.369,0,3.965,0.41,4.785,1.23s1.23,2.553,1.23,5.195v2.512c0,2.006-0.41,3.486-1.23,4.443s-2.416,1.436-4.785,1.436h-25.703
		v0.684c0,2.006,0.91,5.008,2.734,5.008h22.969c2.188,0,3.691,0.365,4.512,1.094c0.82,0.73,1.23,2.188,1.23,4.375v6.836
		c0,1.641-0.41,2.803-1.23,3.486s-2.324,1.025-4.512,1.025H251.861z M251.861,132.891c-2.371,0-3.943-0.342-4.717-1.025
		c-0.775-0.684-1.162-1.846-1.162-3.486V91.738c0-2.188,0.387-3.645,1.162-4.375c0.773-0.729,2.346-1.094,4.717-1.094h12.031
		c2.188,0,3.645,0.32,4.375,0.957c0.729,0.639,1.094,2.143,1.094,4.512v3.828h25.703c2.369,0,3.965,0.41,4.785,1.23
		s1.23,2.553,1.23,5.195v2.512c0,2.006-0.41,3.486-1.23,4.443s-2.416,1.436-4.785,1.436h-25.703v2.684
		c0,2.006,0.91,3.008,2.734,3.008h22.969c2.188,0,3.691,0.365,4.512,1.094c0.82,0.73,1.23,2.188,1.23,4.375v6.836
		c0,1.641-0.41,2.803-1.23,3.486s-2.324,1.025-4.512,1.025H251.861z M274.146,142.051c-0.73-1.457-0.594-2.711,0.41-3.76
		c1.002-1.047,2.688-1.572,5.059-1.572h11.758c2.188,0,3.645,0.365,4.375,1.094c0.729,0.73,1.73,2.279,3.008,4.648l5.332,11.895
		c0.637,2.277,0.432,3.76-0.615,4.443c-1.049,0.684-2.666,1.025-4.854,1.025h-12.715c-2.188,0-3.578-0.41-4.17-1.23
		c-0.594-0.82-1.391-2.371-2.393-4.648L274.146,142.051z"/>
	<linearGradient id="SVGID_2_" gradientUnits="userSpaceOnUse" x1="613.25" y1="55.623" x2="118.25" y2="148.6233">
		<stop  offset="0.3421" style="stop-color:#72625A"/>
		<stop  offset="1" style="stop-color:#3A2F28"/>
	</linearGradient>
	<path fill="url(#SVGID_2_)" d="M421.803,57.148h18.047c1.822,0,3.053,0.342,3.691,1.025c0.637,0.684,0.957,2.211,0.957,4.58v0.41
		c0,1.732-0.32,3.008-0.957,3.828c-0.639,0.82-1.869,1.23-3.691,1.23h-18.047v4.555h9.844c2.004,0,3.555,0.434,4.648,1.299
		c1.094,0.867,1.641,1.713,1.641,4.537v26.523c0,2.461-0.525,4.262-1.572,5.4c-1.049,1.141-2.576,1.709-4.58,1.709H406.9v3.418
		h33.633c1.367,0,2.482,0.502,3.35,1.504c0.865,1.004,1.344,2.051,1.436,3.145v34.18c-0.092,1.184-0.57,2.256-1.436,3.213
		c-0.867,0.957-1.982,1.436-3.35,1.436h-10.254c-1.277,0-2.188-0.297-2.734-0.889c-0.547-0.594-0.957-0.98-1.23-1.162
		c-0.092,0.273-0.365,0.773-0.82,1.504c-0.457,0.729-1.322,0.957-2.598,0.684h-9.57c-1.824,0.273-3.055-0.047-3.691-0.957
		c-0.639-0.639-1.277-1.777-1.914-3.418l-31.172,3.691c-1.277,0.273-2.348,0-3.213-0.82c-0.867-0.82-1.299-2.234-1.299-4.238v-3.965
		c-0.092-1.822,0.182-3.076,0.82-3.76c0.637-0.684,1.867-1.115,3.691-1.299l10.938-1.23v-14.492h-19.004v25.703
		c0,1.184-0.41,2.256-1.23,3.213s-1.869,1.436-3.145,1.436h-10.391c-1.367,0-2.439-0.479-3.213-1.436
		c-0.775-0.957-1.162-2.029-1.162-3.213v-14.219c-1.277,4.193-3.055,7.703-5.332,10.527c-5.014,6.197-11.576,9.25-19.688,9.16
		c-1.459-0.092-2.689-0.594-3.691-1.504c-1.004-0.912-1.504-2.098-1.504-3.555v-13.398c0-1.457,0.5-2.643,1.504-3.555
		c1.002-0.91,2.232-1.412,3.691-1.504c2.188-0.182,3.85-1.754,4.99-4.717c1.139-2.961,1.709-7.725,1.709-14.287V43.066
		c0-2.643,0.41-4.375,1.23-5.195s2.324-1.23,4.512-1.23h103.633c2.369,0,3.965,0.41,4.785,1.23s1.23,2.553,1.23,5.195v4.375
		c0,2.006-0.41,3.486-1.23,4.443s-2.416,1.436-4.785,1.436h-18.594V57.148z M372.447,57.148V53.32h-20.508v3.828H372.447z
		 M353.717,115.664h33.77v-3.418h-24.609c-2.279,0-3.92-0.547-4.922-1.641c-1.004-1.094-1.504-2.871-1.504-5.332V78.34
		c0-2.643,0.479-3.396,1.436-4.264c0.957-0.865,2.574-1.299,4.854-1.299h9.707v-4.555h-20.508v47.852
		C352.486,115.801,353.078,115.664,353.717,115.664z M376.139,82.988v5.281h11.348v-5.281H376.139z M376.139,97.617v5.281h11.348
		v-5.281H376.139z M390.631,57.148h12.988V53.32h-12.988V57.148z M390.631,68.223v4.555h12.988v-4.555H390.631z M418.248,88.27
		v-5.281H406.9v5.281H418.248z M418.248,102.898v-5.281H406.9v5.281H418.248z M425.904,128.789H406.9v5.281h9.297
		c1.367,0,2.393,0.32,3.076,0.957c0.684,0.639,1.252,1.914,1.709,3.828l4.922,12.766V128.789z"/>
	<linearGradient id="SVGID_3_" gradientUnits="userSpaceOnUse" x1="618.2598" y1="82.2852" x2="123.2598" y2="175.2854">
		<stop  offset="0.3421" style="stop-color:#72625A"/>
		<stop  offset="1" style="stop-color:#3A2F28"/>
	</linearGradient>
	<path fill="url(#SVGID_3_)" d="M468.834,118.398c-2.188,0-3.691-0.479-4.512-1.436s-1.23-2.438-1.23-4.443v-3.281
		c0-2.643,0.41-4.375,1.23-5.195s2.324-1.23,4.512-1.23h39.512v-4.008h-33.504c-2.188,0-3.691-0.479-4.512-1.436
		s-1.23-2.438-1.23-4.443v-2.281c0-2.643,0.41-4.375,1.23-5.195s2.324-1.23,4.512-1.23h33.504v-4.008h-36.504
		c-2.188,0-3.691-0.479-4.512-1.436s-1.23-1.438-1.23-3.443h-0.82c-1.641,0-2.803-0.41-3.486-1.23s-1.025-2.324-1.025-4.512V49.902
		c0-2.369,0.342-3.941,1.025-4.717c0.684-0.773,1.846-1.162,3.486-1.162h42.383v-4.238c0.09-1.367,0.66-2.598,1.709-3.691
		c1.047-1.094,2.482-1.641,4.307-1.641h18.32c1.641,0,3.029,0.547,4.17,1.641c1.139,1.094,1.709,2.324,1.709,3.691v4.238h42.246
		c1.641,0,2.803,0.389,3.486,1.162c0.684,0.775,1.025,2.348,1.025,4.717V69.59c0,2.188-0.342,3.691-1.025,4.512
		s-1.846,1.23-3.486,1.23h-0.82c0,2.006-0.41,2.486-1.23,3.443s-2.416,1.436-4.785,1.436h-36.094v4.008h33.094
		c2.369,0,3.965,0.41,4.785,1.23s1.23,2.553,1.23,5.195v2.281c0,2.006-0.41,3.486-1.23,4.443s-2.416,1.436-4.785,1.436h-33.094
		v4.008h39.102c2.369,0,3.965,0.41,4.785,1.23s1.23,2.553,1.23,5.195v3.281c0,2.006-0.41,3.486-1.23,4.443s-2.416,1.436-4.785,1.436
		H468.834z M565.904,159.414h-86.27c-2.553,0-4.559-0.502-6.016-1.504c-1.459-1.004-2.188-3.145-2.188-6.426v-21.328
		c0-2.916,0.705-5.012,2.119-6.289c1.412-1.275,3.395-1.914,5.947-1.914h86.27c2.916,0,5.035,0.615,6.357,1.846
		c1.32,1.23,1.982,3.305,1.982,6.221v21.738c0,3.008-0.639,5.035-1.914,6.084C570.916,158.889,568.82,159.414,565.904,159.414z
		 M508.346,65.625v-5.879h-14.629c-2.006,0-3.008,0.912-3.008,2.734v3.145H508.346z M500.553,144.145h44.297v-7.059h-44.297V144.145
		z M537.193,65.625h17.5V62.48c0-1.822-1.004-2.734-3.008-2.734h-14.492V65.625z"/>
</g>
<g>
	<path fill-rule="evenodd" clip-rule="evenodd" fill="#3A2F28" d="M124.938,90.613c-1.644-0.367-3.133-0.715-4.629-1.031
		c-4.811-1.018-8.899-1.926-12.964-6.223c-4.912-5.193-12.688-7.771-19.406-11.115c-2.543-1.266-4.615-2.201-5.694-5.244
		c-1.522-4.291-5.183-6.492-9.724-6.805c-4.542-0.314-8.154,1.504-10.652,5.369c-0.522,0.807-0.96,1.668-1.588,2.768
		c-14.894-6.387-30.279-9.51-46.537-7.445c8.821-23.25,41.589-41.014,72.021-39.23c31.546,1.848,59.947,26.162,67.656,57.92
		c7.81,32.172-6.604,66.078-35.032,82.973c-27.082,16.092-61.639,12.186-81.145-3.404c8.931-15.951,21.741-27.787,38.123-35.811
		c9.497-4.652,19.627-7.039,30.105-8.275C119.358,113.42,125.917,105.189,124.938,90.613z"/>
	<circle fill-rule="evenodd" clip-rule="evenodd" fill="#3A2F28" cx="87.953" cy="86.715" r="5.425"/>
</g>
</svg>
