<?xml version="1.0" encoding="utf-8"?>
<!-- Generator: Adobe Illustrator 16.0.0, SVG Export Plug-In . SVG Version: 6.00 Build 0)  -->
<!DOCTYPE svg PUBLIC "-//W3C//DTD SVG 1.1//EN" "http://www.w3.org/Graphics/SVG/1.1/DTD/svg11.dtd">
<svg version="1.1" id="圖層_1" xmlns="http://www.w3.org/2000/svg" xmlns:xlink="http://www.w3.org/1999/xlink" x="0px" y="0px"
	 width="168.268px" height="180.023px" viewBox="0 0 168.268 180.023" enable-background="new 0 0 168.268 180.023"
	 xml:space="preserve">
<g>
	<path fill-rule="evenodd" clip-rule="evenodd" fill="#FFFFFF" d="M-339.697,389.468c0-66.992,0-133.983,0-200.975
		c66.991,0,133.982,0,200.975,0c0,66.991,0,133.982,0,200.975C-205.714,389.468-272.706,389.468-339.697,389.468z M-186.092,280.516
		c1.811,17.637-6.854,27.851-24.612,29.772c-32.458,3.512-57.621,19.174-75.953,46.028c-1.356,1.986-2.449,4.153-3.612,6.146
		c27.462,21.296,71.068,21.367,101.41,0.59c32.242-22.078,46.516-62.384,35.392-99.931c-11.006-37.143-45.102-63.655-83.063-64.585
		c-34.242-0.84-72.471,20.891-81.468,46.564c19.184-2.132,37.425,1.258,54.94,8.904c1.01-1.648,1.685-2.987,2.574-4.166
		c5.838-7.733,18.478-7.6,22.721,1.049c2.607,5.314,6.357,7.384,11.181,9.219c3.407,1.295,6.769,2.863,9.879,4.757
		c5.011,3.05,11.104,4.929,13.229,11.46c0.22,0.676,1.877,1.041,2.928,1.266C-195.703,278.627-190.836,279.565-186.092,280.516z
		 M-227.826,281.212c0.761,0,1.521,0,2.282,0c1.262-1.967,3.57-3.986,3.473-5.883c-0.086-1.674-3.068-4.66-4.388-4.465
		c-1.919,0.283-4.621,2.739-4.887,4.572C-231.594,277.158-229.109,279.272-227.826,281.212z"/>
	<g>
		<path fill="#FFFFFF" d="M131.908,82.003c-4.744-0.951-9.61-1.889-14.456-2.927c-1.051-0.225-2.708-0.589-2.928-1.266
			c-2.125-6.53-8.219-8.409-13.229-11.459c-3.11-1.894-6.472-3.461-9.879-4.757c-4.823-1.834-8.573-3.904-11.181-9.218
			c-4.244-8.648-16.883-8.782-22.721-1.049c-0.889,1.179-1.564,2.517-2.574,4.167C37.425,47.847,19.184,44.457,0,46.589
			C8.998,20.915,47.226-0.816,81.468,0.023c37.962,0.931,72.058,27.443,83.063,64.585c11.124,37.547-3.149,77.853-35.392,99.931
			c-30.342,20.777-73.947,20.706-101.41-0.59c1.163-1.992,2.255-4.159,3.612-6.146c18.332-26.854,43.496-42.517,75.953-46.028
			C125.054,109.854,133.718,99.64,131.908,82.003z"/>
		<circle fill="#FFFFFF" cx="91.285" cy="77.521" r="4.188"/>
	</g>
</g>
</svg>
